HIERARCHY
ROOT Hips
{
	OFFSET -0.001795 -0.223333 0.028219
	CHANNELS 6 Xposition Yposition Zposition Zrotation Yrotation Xrotation 
	JOINT LeftUpLeg
	{
		OFFSET 0.069520 -0.091406 -0.006815
		CHANNELS 3 Zrotation Yrotation Xrotation
		JOINT LeftLeg
		{
			OFFSET 0.034277 -0.375199 -0.004496
			CHANNELS 3 Zrotation Yrotation Xrotation
			JOINT LeftFoot
			{
				OFFSET -0.013596 -0.397961 -0.043693
				CHANNELS 3 Zrotation Yrotation Xrotation
				JOINT LeftToe
				{
					OFFSET 0.026358 -0.055791 0.119288
					CHANNELS 3 Zrotation Yrotation Xrotation
					End Site
					{
						OFFSET 0.000000 0.000000 0.000000
					}
				}
			}
		}
	}
	JOINT RightUpLeg
	{
		OFFSET -0.067670 -0.090522 -0.004320
		CHANNELS 3 Zrotation Yrotation Xrotation
		JOINT RightLeg
		{
			OFFSET -0.038290 -0.382569 -0.008850
			CHANNELS 3 Zrotation Yrotation Xrotation
			JOINT RightFoot
			{
				OFFSET 0.015774 -0.398415 -0.042312
				CHANNELS 3 Zrotation Yrotation Xrotation
				JOINT RightToe
				{
					OFFSET -0.025372 -0.048144 0.123348
					CHANNELS 3 Zrotation Yrotation Xrotation
					End Site
					{
						OFFSET 0.000000 0.000000 0.000000
					}
				}
			}
		}
	}
	JOINT Spine
	{
		OFFSET -0.002533 0.108963 -0.026696
		CHANNELS 3 Zrotation Yrotation Xrotation
		JOINT Spine1
		{
			OFFSET 0.005487 0.135180 0.001092
			CHANNELS 3 Zrotation Yrotation Xrotation
			JOINT Spine2
			{
				OFFSET 0.001457 0.052922 0.025425
				CHANNELS 3 Zrotation Yrotation Xrotation
				JOINT Neck
				{
					OFFSET -0.002778 0.213870 -0.042857
					CHANNELS 3 Zrotation Yrotation Xrotation
					JOINT Head
					{
						OFFSET 0.005152 0.064970 0.051349
						CHANNELS 3 Zrotation Yrotation Xrotation
						End Site
						{
							OFFSET 0.000000 0.000000 0.000000
						}
					}
				}
				JOINT LeftShoulder
				{
					OFFSET 0.078845 0.121749 -0.034090
					CHANNELS 3 Zrotation Yrotation Xrotation
					JOINT LeftArm
					{
						OFFSET 0.090977 0.030469 -0.008868
						CHANNELS 3 Zrotation Yrotation Xrotation
						JOINT LeftForeArm
						{
							OFFSET 0.259612 -0.012772 -0.027456
							CHANNELS 3 Zrotation Yrotation Xrotation
							JOINT LeftHand
							{
								OFFSET 0.249234 0.008986 -0.001171
								CHANNELS 3 Zrotation Yrotation Xrotation
								End Site
								{
									OFFSET 0.000000 0.000000 0.000000
								}
							}
						}
					}
				}
				JOINT RightShoulder
				{
					OFFSET -0.081759 0.118833 -0.038615
					CHANNELS 3 Zrotation Yrotation Xrotation
					JOINT RightArm
					{
						OFFSET -0.096012 0.032551 -0.009143
						CHANNELS 3 Zrotation Yrotation Xrotation
						JOINT RightForeArm
						{
							OFFSET -0.253742 -0.013329 -0.021401
							CHANNELS 3 Zrotation Yrotation Xrotation
							JOINT RightHand
							{
								OFFSET -0.255298 0.007772 -0.005559
								CHANNELS 3 Zrotation Yrotation Xrotation
								End Site
								{
									OFFSET 0.000000 0.000000 0.000000
								}
							}
						}
					}
				}
			}
		}
	}
}
MOTION
Frames: 9
Frame Time: 0.050000
-0.174958 0.943076 -0.038951 -1.119724 7.479339 3.523346 8.224275 -0.537478 -10.023687 6.564467 -1.523074 8.476710 -3.227585 0.739413 13.042036 0.000000 0.000000 0.000000 -2.271467 0.676645 -8.096196 2.304209 -0.215421 5.982948 0.216548 -2.201683 7.675100 0.000000 0.000000 0.000000 -3.733940 0.050184 -7.971315 2.178164 -1.315351 3.231138 1.475999 -4.152085 1.050867 -1.764978 1.372763 0.524679 0.000000 0.000000 0.000000 -5.503274 -9.095773 3.105975 -34.554157 -24.476524 2.663248 127.326345 -41.019753 -68.139874 0.000000 0.000000 0.000000 -0.218168 15.524008 5.328803 23.436226 19.547465 1.002779 -124.888919 52.640440 -81.127584 0.000000 0.000000 0.000000 
-0.175822 0.945800 -0.038421 -1.279395 7.736237 3.856738 8.519705 -0.561913 -10.895824 6.409101 -1.572313 9.188415 -3.506313 0.695943 13.865778 0.000000 0.000000 0.000000 -2.465041 0.675487 -8.223883 3.068260 -0.353632 5.551247 0.315594 -2.316412 8.808675 0.000000 0.000000 0.000000 -3.582905 0.062777 -7.573896 2.190454 -1.301891 2.960613 1.361976 -3.904002 0.211424 -2.564212 1.959665 1.588683 0.000000 0.000000 0.000000 -3.577617 -8.800930 2.956043 -32.858917 -24.100668 2.431718 125.680716 -41.428351 -67.246429 0.000000 0.000000 0.000000 -2.272613 14.426391 4.872212 22.293711 17.010488 0.558927 -124.646591 52.568343 -80.501112 0.000000 0.000000 0.000000 
-0.176363 0.946535 -0.038382 -1.275413 7.711153 4.507106 8.591739 -0.604293 -12.080377 6.308567 -1.641991 10.014527 -3.499311 0.850847 14.212102 0.000000 0.000000 0.000000 -2.607031 0.709354 -8.769070 3.349376 -0.400722 5.216546 0.372936 -2.314440 9.196659 0.000000 0.000000 0.000000 -3.474771 0.073031 -8.170626 2.086293 -1.265632 3.172589 1.177452 -3.973816 0.068413 -2.957675 2.281806 1.443213 0.000000 0.000000 0.000000 -4.047785 -7.270889 2.369060 -34.896055 -23.680156 2.568321 126.680987 -42.013144 -69.144454 0.000000 0.000000 0.000000 -1.795367 13.859399 4.705178 23.777525 15.820740 0.477461 -123.405018 48.780208 -74.056539 0.000000 0.000000 0.000000 
-0.176959 0.946153 -0.038010 -1.082107 9.096612 4.852317 8.519566 -0.681978 -12.989900 6.275450 -1.673184 10.283605 -4.144985 0.000707 14.199458 0.000000 0.000000 0.000000 -2.663902 0.706903 -8.939446 3.297167 -0.410784 5.221874 -0.274690 -3.450216 9.043991 0.000000 0.000000 0.000000 -4.192211 0.023362 -7.850654 2.061058 -1.202732 2.385019 1.631732 -4.612814 0.207772 -2.281614 1.771199 0.683527 0.000000 0.000000 0.000000 -7.643273 -6.127905 1.809979 -39.349054 -22.796628 2.773171 131.185731 -42.148103 -74.531343 0.000000 0.000000 0.000000 2.085266 12.285868 4.268285 27.830422 16.095588 0.753969 -123.657712 45.463201 -69.756702 0.000000 0.000000 0.000000 
-0.178033 0.946065 -0.037288 -0.923280 9.595773 5.436320 8.585508 -0.721711 -13.525194 6.070955 -1.598669 9.961884 -4.382565 -0.251442 14.326269 0.000000 0.000000 0.000000 -2.621536 0.713246 -9.023349 3.102915 -0.381335 4.448565 -0.507565 -3.873657 9.068736 0.000000 0.000000 0.000000 -4.758889 -0.025219 -8.653394 2.120390 -1.312578 3.177748 1.622818 -4.458624 -0.719831 -2.020658 1.592969 -0.078277 0.000000 0.000000 0.000000 -12.943040 -5.550608 1.256510 -44.318059 -22.130957 3.157978 136.407882 -44.194581 -84.549068 0.000000 0.000000 0.000000 6.753155 11.806342 4.202928 34.200765 16.518237 1.309172 -125.293934 43.671449 -68.803469 0.000000 0.000000 0.000000 
-0.180141 0.945807 -0.036638 -1.015244 9.814408 5.199298 8.700079 -0.697264 -12.952523 6.323202 -1.574701 9.308581 -4.530409 -0.439404 14.340330 0.000000 0.000000 0.000000 -2.213723 0.717376 -8.740848 2.851992 -0.342140 4.467522 -0.625880 -4.046604 8.879655 0.000000 0.000000 0.000000 -4.865923 -0.048610 -9.020296 2.089727 -1.339505 3.584033 1.029132 -4.234390 -0.390138 -0.885803 0.690983 0.090071 0.000000 0.000000 0.000000 -15.923892 -6.324135 1.398621 -46.406586 -22.333767 3.453342 137.409013 -44.426757 -86.540735 0.000000 0.000000 0.000000 10.627383 12.406439 4.647996 39.289644 17.836571 2.025206 -125.117982 43.765156 -68.425446 0.000000 0.000000 0.000000 
-0.182788 0.945967 -0.036834 -1.069238 10.053553 4.614407 8.900791 -0.643482 -11.728979 6.398217 -1.448917 8.066533 -4.775087 -0.705059 14.494282 0.000000 0.000000 0.000000 -1.778819 0.700163 -8.185654 2.536073 -0.291571 4.586083 -0.730255 -4.216522 8.775695 0.000000 0.000000 0.000000 -4.880176 -0.057866 -8.826872 1.999173 -1.257674 3.178679 0.671135 -3.645688 -0.004891 -0.528106 0.400694 0.168058 0.000000 0.000000 0.000000 -14.724571 -8.656762 2.435092 -45.693426 -25.572865 4.637224 133.721399 -44.495705 -82.241685 0.000000 0.000000 0.000000 11.445815 12.757872 4.997719 39.014288 18.235973 2.058140 -123.184970 48.229324 -71.993434 0.000000 0.000000 0.000000 
-0.185260 0.946453 -0.037989 -1.123942 9.900534 4.490320 9.289060 -0.600661 -10.988662 6.090308 -1.268513 6.907474 -4.823373 -0.637184 14.823108 0.000000 0.000000 0.000000 -1.815091 0.691243 -8.080740 2.948162 -0.359868 4.394957 -0.606512 -4.031744 8.992343 0.000000 0.000000 0.000000 -4.837909 -0.055223 -8.900126 2.125848 -1.351511 3.501584 0.022628 -2.579425 -0.456722 -0.260825 0.038971 1.670032 0.000000 0.000000 0.000000 -10.975460 -10.807744 3.323679 -40.986548 -29.710517 5.475640 125.478128 -42.954922 -71.003020 0.000000 0.000000 0.000000 8.851963 14.683233 5.891280 33.239356 16.831400 1.217888 -121.941183 52.611632 -75.819180 0.000000 0.000000 0.000000 
-0.186855 0.947744 -0.039368 -1.326750 10.242824 4.075007 9.444640 -0.583076 -10.459595 6.353766 -1.247792 6.315201 -5.150283 -0.876464 15.262746 0.000000 0.000000 0.000000 -1.684863 0.662415 -7.631547 3.299875 -0.422990 4.182141 -0.637741 -4.194819 9.547521 0.000000 0.000000 0.000000 -4.503119 -0.017881 -7.735823 1.926400 -1.169552 2.615634 -0.020013 -2.589377 -0.010793 -0.253133 -0.106036 3.012854 0.000000 0.000000 0.000000 -7.775885 -12.556344 4.107961 -34.634170 -31.654880 4.847419 118.370538 -37.595663 -56.519392 0.000000 0.000000 0.000000 5.030295 16.026783 6.162343 27.609235 15.809749 0.614966 -122.528463 56.473907 -81.276651 0.000000 0.000000 0.000000 
